<svg version="1.1" viewBox="0.0 0.0 310.0761154855643 100.0" fill="none" stroke="none" stroke-linecap="square" stroke-miterlimit="10" xmlns:xlink="http://www.w3.org/1999/xlink" xmlns="http://www.w3.org/2000/svg"><clipPath id="p.0"><path d="m0 0l310.0761 0l0 100.0l-310.0761 0l0 -100.0z" clip-rule="nonzero"/></clipPath><g clip-path="url(#p.0)"><path fill="#000000" fill-opacity="0.0" d="m0 0l310.0761 0l0 100.0l-310.0761 0z" fill-rule="evenodd"/><path fill="#000000" fill-opacity="0.0" d="m-22.952755 111.71129l0 0c0 -40.47769 80.46889 -73.291336 179.73228 -73.291336l0 0c99.26341 0 179.73228 32.81365 179.73228 73.291336l0 0c0 40.47769 -80.46887 73.291336 -179.73228 73.291336l0 0c-99.2634 0 -179.73228 -32.813644 -179.73228 -73.291336z" fill-rule="evenodd"/><path stroke="#000000" stroke-width="1.0" stroke-linejoin="round" stroke-linecap="butt" stroke-dasharray="1.0,3.0" d="m-22.952755 111.71129l0 0c0 -40.47769 80.46889 -73.291336 179.73228 -73.291336l0 0c99.26341 0 179.73228 32.81365 179.73228 73.291336l0 0c0 40.47769 -80.46887 73.291336 -179.73228 73.291336l0 0c-99.2634 0 -179.73228 -32.813644 -179.73228 -73.291336z" fill-rule="evenodd"/></g></svg>